<svg width="33" height="25" viewBox="0 0 33 25" fill="none" xmlns="http://www.w3.org/2000/svg">
<path d="M14.4375 24.875C14.4375 24.875 12.375 24.875 12.375 22.8125C12.375 20.75 14.4375 14.5625 22.6875 14.5625C30.9375 14.5625 33 20.75 33 22.8125C33 24.875 30.9375 24.875 30.9375 24.875H14.4375ZM22.6875 12.5C24.3285 12.5 25.9023 11.8481 27.0627 10.6877C28.2231 9.52734 28.875 7.95353 28.875 6.3125C28.875 4.67147 28.2231 3.09766 27.0627 1.93728C25.9023 0.776896 24.3285 0.125 22.6875 0.125C21.0465 0.125 19.4727 0.776896 18.3123 1.93728C17.1519 3.09766 16.5 4.67147 16.5 6.3125C16.5 7.95353 17.1519 9.52734 18.3123 10.6877C19.4727 11.8481 21.0465 12.5 22.6875 12.5Z" fill="white"/>
<path fill-rule="evenodd" clip-rule="evenodd" d="M10.758 24.8759C10.4522 24.232 10.2998 23.5261 10.3125 22.8134C10.3125 20.0187 11.715 17.1415 14.3055 15.1409C13.0125 14.7425 11.6654 14.5477 10.3125 14.5634C2.0625 14.5634 0 20.7509 0 22.8134C0 24.8759 2.0625 24.8759 2.0625 24.8759H10.758Z" fill="white"/>
<path d="M9.28125 12.5C10.6488 12.5 11.9603 11.9568 12.9273 10.9898C13.8943 10.0228 14.4375 8.71127 14.4375 7.34375C14.4375 5.97623 13.8943 4.66472 12.9273 3.69773C11.9603 2.73075 10.6488 2.1875 9.28125 2.1875C7.91373 2.1875 6.60222 2.73075 5.63523 3.69773C4.66825 4.66472 4.125 5.97623 4.125 7.34375C4.125 8.71127 4.66825 10.0228 5.63523 10.9898C6.60222 11.9568 7.91373 12.5 9.28125 12.5Z" fill="white"/>
</svg>
