<svg width="157" height="26" viewBox="0 0 157 26" fill="none" xmlns="http://www.w3.org/2000/svg">
<path d="M0 0.5H2.93851V22.8571H15.2173V25.5H0V0.5Z" fill="white"/>
<path d="M19.0626 0.5H22.0011V25.5H19.0626V0.5Z" fill="white"/>
<path d="M27.8081 0.5H43.4802V3.14286H30.7467V11.9643H42.4307V14.6071H30.7467V25.5H27.8081V0.5Z" fill="white"/>
<path d="M47.8956 0.5H63.2178V3.14286H50.8341V11.25H62.2383V13.8929H50.8341V22.8571H63.3228V25.5H47.8956V0.5Z" fill="white"/>
<path d="M66.1801 0.5H86.3299V5.57143H79.0885V25.5H73.4214V5.57143H66.1801V0.5Z" fill="white"/>
<path d="M89.0765 0.5H106.952V5.57143H94.7436V10.1071H105.973V15.0357H94.7436V20.4286H107.057V25.5H89.0765V0.5Z" fill="white"/>
<path d="M133.211 19.25C132.512 20.3929 131.777 21.3929 131.007 22.25C130.238 23.0833 129.398 23.7857 128.489 24.3571C127.579 24.9048 126.588 25.3095 125.515 25.5714C124.442 25.8571 123.241 26 121.912 26C120.046 26 118.332 25.6905 116.77 25.0714C115.23 24.4524 113.889 23.5714 112.747 22.4286C111.627 21.2857 110.753 19.9167 110.123 18.3214C109.493 16.7262 109.178 14.9524 109.178 13C109.178 11.0476 109.505 9.27381 110.158 7.67857C110.811 6.08333 111.709 4.71429 112.852 3.57143C114.018 2.42857 115.382 1.54762 116.945 0.928572C118.53 0.309524 120.233 0 122.052 0C123.405 0 124.652 0.166667 125.795 0.5C126.961 0.833333 127.999 1.29762 128.908 1.89286C129.841 2.46429 130.646 3.15476 131.322 3.96429C132.022 4.75 132.582 5.61905 133.001 6.57143L128.279 9.92857C127.602 8.47619 126.728 7.35714 125.655 6.57143C124.606 5.76191 123.346 5.35714 121.877 5.35714C120.921 5.35714 120.011 5.53571 119.148 5.89286C118.309 6.25 117.563 6.7619 116.91 7.42857C116.28 8.07143 115.778 8.86905 115.405 9.82143C115.032 10.7738 114.846 11.8333 114.846 13C114.846 14.1429 115.032 15.1905 115.405 16.1429C115.778 17.0714 116.28 17.869 116.91 18.5357C117.563 19.2024 118.309 19.7262 119.148 20.1071C120.011 20.4643 120.932 20.6429 121.912 20.6429C123.498 20.6429 124.804 20.2381 125.83 19.4286C126.879 18.5952 127.812 17.4167 128.629 15.8929L133.211 19.25Z" fill="white"/>
<path d="M136.221 0.5H141.888V10.0714H151.333V0.5H157V25.5H151.333V15.4286H141.888V25.5H136.221V0.5Z" fill="white"/>
</svg>
