<svg width="739" height="274" viewBox="0 0 739 274" fill="none" xmlns="http://www.w3.org/2000/svg">
<g style="mix-blend-mode:exclusion">
<path fill-rule="evenodd" clip-rule="evenodd" d="M738.561 0.828156C738.567 0.885171 738.562 0.94282 738.545 0.997805C738.529 1.05279 738.502 1.10403 738.466 1.14861C738.43 1.19318 738.386 1.23021 738.335 1.25757C738.285 1.28494 738.229 1.30211 738.172 1.30809C642.934 11.351 564.364 51.8358 526.12 75.4452C522.412 77.7303 518.743 80.0762 515.112 82.4819C508.024 88.0562 503.718 91.1583 501.942 92.2909C501.688 92.4532 501.48 92.5789 501.319 92.667C501.248 92.7072 501.175 92.7442 501.101 92.7778C501.028 92.8114 500.952 92.8355 500.873 92.8494C500.837 92.8538 500.724 92.8686 500.6 92.8101C500.524 92.762 500.457 92.7012 500.402 92.6304C500.369 92.5559 500.348 92.4767 500.34 92.3957C500.341 92.3163 500.362 92.2385 500.4 92.1688C500.418 92.1325 500.441 92.0981 500.466 92.0658C500.541 91.9663 500.666 91.8424 500.812 91.708C501.416 91.153 502.787 90.0623 504.864 88.5343C507.212 86.8066 510.48 84.5099 514.601 81.7733C523.581 74.7104 537.048 63.6597 555.524 47.5844C557.077 46.2336 558.043 45.1088 558.503 44.2004C558.955 43.3095 558.886 42.7126 558.525 42.272C558.118 41.7772 557.254 41.3583 555.819 41.0913C554.406 40.8287 552.526 40.7274 550.197 40.7894C540.873 41.0381 524.686 43.8863 503.533 48.8707C461.248 58.835 399.257 77.3003 332.99 100.406C266.724 123.51 196.195 151.25 136.832 179.756C107.149 194.01 80.2653 208.452 58.1041 222.6C50.6268 227.373 43.6905 232.111 37.3667 236.795C38.0533 242.216 41.1158 247.255 45.3299 251.489C49.914 256.097 55.826 259.717 61.3986 261.804C63.3277 262.528 65.2114 263.064 66.9799 263.396C69.6951 263.216 72.5045 263.057 75.4073 262.921L75.6123 263.753C73.8822 264.56 71.6582 264.8 69.1821 264.583C68.4265 264.515 67.6744 264.412 66.9284 264.274C40.4422 266.034 22.8214 269.743 12.5653 271.901C11.3534 272.156 10.2444 272.39 9.2367 272.596C6.63581 273.127 4.66747 273.483 3.32296 273.552C2.65638 273.585 2.091 273.551 1.66523 273.401C1.44623 273.323 1.24556 273.209 1.08938 273.039C0.93265 272.869 0.831853 272.655 0.800588 272.426C0.736896 271.99 0.889582 271.493 1.1426 270.97C1.40261 270.434 1.8057 269.798 2.33268 269.057C3.3884 267.573 4.98767 265.61 7.07729 263.079C14.1925 254.461 24.1659 245.522 36.4427 236.394C36.4095 236.06 36.385 235.724 36.3694 235.389C36.112 229.896 38.227 224.085 43.7682 218.327C41.8608 219.997 39.9723 221.687 38.1031 223.399C31.8447 229.129 24.5306 236.245 18.1562 243.395C11.7739 250.555 6.36883 257.712 3.89095 263.529C3.8456 263.635 3.75982 263.719 3.65248 263.762C3.54514 263.806 3.42504 263.804 3.3186 263.759C3.21215 263.714 3.12809 263.628 3.08489 263.521C3.04169 263.413 3.04291 263.293 3.08826 263.187C5.62546 257.23 11.1143 249.983 17.5053 242.814C23.905 235.635 31.2427 228.497 37.5141 222.756C43.783 217.016 48.9987 212.661 51.1564 211.048C51.4269 210.846 51.6537 210.683 51.8317 210.565C51.9207 210.506 52.001 210.456 52.0708 210.416C52.1327 210.381 52.2139 210.339 52.295 210.314C52.3264 210.306 52.4224 210.278 52.5376 210.3C52.6069 210.314 52.6722 210.343 52.7282 210.386C52.7843 210.428 52.8296 210.484 52.8606 210.547C52.8916 210.611 52.9074 210.68 52.9068 210.751C52.9061 210.822 52.889 210.891 52.8569 210.954C52.8382 210.995 52.816 211.034 52.7906 211.071C52.7121 211.186 52.5742 211.342 52.398 211.527C51.6712 212.285 49.9306 213.894 46.9397 216.513C39.6038 222.94 36.9619 229.396 37.2411 235.348C37.248 235.493 37.2568 235.638 37.2672 235.783C43.4986 231.185 50.311 226.539 57.6347 221.864C79.8352 207.691 106.753 193.232 136.454 178.969C195.856 150.444 266.417 122.694 332.703 99.5816C398.988 76.4705 461.009 57.9947 503.333 48.0216C524.485 43.0372 540.751 40.1681 550.173 39.9168C552.531 39.854 554.48 39.9543 555.979 40.2335C557.457 40.5093 558.588 40.9744 559.199 41.7187C559.856 42.5189 559.828 43.5189 559.281 44.5949C558.745 45.6551 557.676 46.8689 556.097 48.2432C541.826 60.6596 530.535 70.0847 521.987 76.9958C523.167 76.2506 524.392 75.4862 525.662 74.7017C563.965 51.0574 642.663 10.5019 738.082 0.439844C738.197 0.427878 738.312 0.462054 738.402 0.534863C738.491 0.607673 738.549 0.713162 738.561 0.828156ZM36.5684 237.389C24.5123 246.384 14.7334 255.177 7.74998 263.635C5.656 266.173 4.07679 268.11 3.04289 269.562C2.52637 270.289 2.15644 270.879 1.92785 271.351C1.69227 271.838 1.63992 272.134 1.66348 272.299C1.67395 272.369 1.69751 272.412 1.72892 272.447C1.76469 272.485 1.831 272.534 1.95577 272.578C2.21577 272.669 2.64067 272.712 3.27934 272.68C4.54619 272.616 6.44822 272.275 9.06221 271.741C10.0699 271.535 11.178 271.302 12.389 271.047C22.2866 268.963 39.068 265.432 64.0571 263.599C63.0559 263.314 62.0669 262.988 61.0923 262.622C55.4124 260.494 49.3905 256.808 44.7113 252.105C40.5364 247.91 37.4016 242.875 36.5684 237.389Z" fill="#F3911E"/>
</g>
</svg>
